<svg width="38" height="37" viewBox="0 0 38 37" fill="none" xmlns="http://www.w3.org/2000/svg">
<rect x="1.41797" y="0.5" width="35.6821" height="35.6821" rx="17.841" fill="#F4F0FA" stroke="#0F1010"/>
<path d="M25.9131 15.3398C26.5381 14.8711 27.1006 14.3086 27.5381 13.6523C26.9756 13.9023 26.3193 14.0898 25.6631 14.1523C26.3506 13.7461 26.8506 13.1211 27.1006 12.3398C26.4756 12.7148 25.7568 12.9961 25.0381 13.1523C24.4131 12.4961 23.5693 12.1211 22.6318 12.1211C20.8193 12.1211 19.3506 13.5898 19.3506 15.4023C19.3506 15.6523 19.3818 15.9023 19.4443 16.1523C16.7256 15.9961 14.2881 14.6836 12.6631 12.7148C12.3818 13.1836 12.2256 13.7461 12.2256 14.3711C12.2256 15.4961 12.7881 16.4961 13.6943 17.0898C13.1631 17.0586 12.6318 16.9336 12.1943 16.6836V16.7148C12.1943 18.3086 13.3193 19.6211 14.8193 19.9336C14.5693 19.9961 14.2568 20.0586 13.9756 20.0586C13.7568 20.0586 13.5693 20.0273 13.3506 19.9961C13.7568 21.3086 14.9756 22.2461 16.4131 22.2773C15.2881 23.1523 13.8818 23.6836 12.3506 23.6836C12.0693 23.6836 11.8193 23.6523 11.5693 23.6211C13.0068 24.5586 14.7256 25.0898 16.6006 25.0898C22.6318 25.0898 25.9131 20.1211 25.9131 15.7773C25.9131 15.6211 25.9131 15.4961 25.9131 15.3398Z" fill="#0F1010"/>
</svg>
