<svg width="22" height="20" viewBox="0 0 22 20" fill="none" xmlns="http://www.w3.org/2000/svg">
<path d="M17.4834 14.4209L17.3862 13.3097L17.3775 13.2101L17.2779 13.2188L16.2272 13.3107L16.1276 13.3194L16.1363 13.419L16.4121 16.5711L16.4208 16.6707L16.5204 16.662L19.6724 16.3862L19.7721 16.3775L19.7634 16.2779L19.6715 15.2272L19.6627 15.1276L19.5631 15.1363L18.447 15.2339C19.5212 13.7123 20.1 11.9004 20.1 10C20.1 7.5695 19.1533 5.28397 17.4347 3.56531L17.364 3.63602L17.4347 3.5653C15.716 1.84671 13.4305 0.9 11 0.9H10.9V1V2.05469V2.15469H11C13.0958 2.15469 15.0656 2.97061 16.5475 4.45253C18.0294 5.93446 18.8453 7.90424 18.8453 10C18.8453 11.6012 18.3688 13.1285 17.4834 14.4209Z" fill="black" stroke="black" stroke-width="0.2"/>
<path d="M3.15469 9.99984C3.15469 8.39867 3.63119 6.87138 4.51656 5.57891L4.61378 6.69012L4.62249 6.78974L4.72211 6.78102L5.77279 6.68912L5.87241 6.68041L5.86369 6.58079L5.58793 3.42878L5.57921 3.32917L5.47959 3.33788L2.32756 3.61361L2.22794 3.62233L2.23665 3.72194L2.32855 4.77262L2.33726 4.87224L2.43688 4.86353L3.55302 4.76589C2.47877 6.28754 1.9 8.09947 1.9 9.99984C1.9 12.4303 2.84668 14.7159 4.5653 16.4345L4.63602 16.3638L4.56531 16.4345C6.28397 18.1531 8.56949 19.0998 11 19.0998H11.1V18.9998V17.9451V17.8451H11C8.90424 17.8451 6.93442 17.0292 5.45253 15.5473C3.9706 14.0654 3.15469 12.0956 3.15469 9.99984Z" fill="black" stroke="black" stroke-width="0.2"/>
</svg>
