<svg width="40" height="40" viewBox="0 0 40 40" fill="none" xmlns="http://www.w3.org/2000/svg">
<g filter="url(#filter0_d)">
<rect width="37" height="37" rx="18.5" fill="white"/>
</g>
<path d="M23.9705 17.0645C23.9875 17.1322 23.9959 17.2422 23.9959 17.3945C23.9959 18.6133 23.6997 19.7897 23.1073 20.9238C22.4979 22.1257 21.6431 23.082 20.5428 23.793C19.341 24.5885 17.9614 24.9863 16.4041 24.9863C14.9145 24.9863 13.5519 24.5885 12.3162 23.793C12.5024 23.8099 12.714 23.8184 12.951 23.8184C14.1867 23.8184 15.2954 23.4375 16.2772 22.6758C15.6847 22.6758 15.16 22.5065 14.703 22.168C14.2629 21.8125 13.9582 21.3724 13.7889 20.8477C13.9582 20.8646 14.119 20.873 14.2713 20.873C14.5083 20.873 14.7453 20.8477 14.9823 20.7969C14.3729 20.6615 13.8651 20.3483 13.4588 19.8574C13.0526 19.3665 12.8494 18.8079 12.8494 18.1816V18.1309C13.2218 18.3509 13.6196 18.4694 14.0428 18.4863C13.6873 18.2324 13.3996 17.9108 13.1795 17.5215C12.9595 17.1322 12.8494 16.709 12.8494 16.252C12.8494 15.778 12.9764 15.3294 13.2303 14.9062C13.8905 15.7357 14.6945 16.3958 15.6424 16.8867C16.6073 17.3776 17.6313 17.6484 18.7147 17.6992C18.6808 17.4961 18.6639 17.293 18.6639 17.0898C18.6639 16.6159 18.7824 16.1758 19.0194 15.7695C19.2563 15.3464 19.578 15.0163 19.9842 14.7793C20.3905 14.5423 20.8306 14.4238 21.3045 14.4238C21.6938 14.4238 22.0493 14.5 22.3709 14.6523C22.7095 14.8047 23.0057 15.0078 23.2596 15.2617C23.869 15.1432 24.436 14.9316 24.9608 14.627C24.7576 15.2533 24.3683 15.7441 23.7928 16.0996C24.3006 16.0319 24.8084 15.888 25.3162 15.668C24.9438 16.2096 24.4953 16.6751 23.9705 17.0645Z" fill="#1C9DEC"/>
<defs>
<filter id="filter0_d" x="0" y="0" width="40" height="40" filterUnits="userSpaceOnUse" color-interpolation-filters="sRGB">
<feFlood flood-opacity="0" result="BackgroundImageFix"/>
<feColorMatrix in="SourceAlpha" type="matrix" values="0 0 0 0 0 0 0 0 0 0 0 0 0 0 0 0 0 0 127 0"/>
<feOffset dx="3" dy="3"/>
<feColorMatrix type="matrix" values="0 0 0 0 0 0 0 0 0 0 0 0 0 0 0 0 0 0 0.25 0"/>
<feBlend mode="normal" in2="BackgroundImageFix" result="effect1_dropShadow"/>
<feBlend mode="normal" in="SourceGraphic" in2="effect1_dropShadow" result="shape"/>
</filter>
</defs>
</svg>
