<svg width="40" height="40" viewBox="0 0 40 40" fill="none" xmlns="http://www.w3.org/2000/svg">
<g filter="url(#filter0_d)">
<rect width="37" height="37" rx="18.5" fill="white"/>
</g>
<g clip-path="url(#clip0)">
<path d="M19.9611 18.5143C19.9611 18.9326 19.6526 19.2754 19.2617 19.2754C18.8777 19.2754 18.5623 18.9326 18.5623 18.5143C18.5623 18.096 18.8709 17.7531 19.2617 17.7531C19.6526 17.7531 19.9611 18.096 19.9611 18.5143ZM16.7589 17.7531C16.368 17.7531 16.0594 18.096 16.0594 18.5143C16.0594 18.9326 16.3749 19.2754 16.7589 19.2754C17.1497 19.2754 17.4583 18.9326 17.4583 18.5143C17.4651 18.096 17.1497 17.7531 16.7589 17.7531ZM24 13.4126V25.7143C22.2725 24.1877 22.825 24.693 20.8183 22.8274L21.1817 24.096H13.4057C12.6309 24.096 12 23.4651 12 22.6834V13.4126C12 12.6309 12.6309 12 13.4057 12H22.5943C23.3691 12 24 12.6309 24 13.4126ZM22.0457 19.9131C22.0457 17.7051 21.0583 15.9154 21.0583 15.9154C20.0709 15.1749 19.1314 15.1954 19.1314 15.1954L19.0354 15.3051C20.2011 15.6617 20.7429 16.176 20.7429 16.176C19.114 15.2833 17.2006 15.2831 15.6206 15.9771C15.3669 16.0937 15.216 16.176 15.216 16.176C15.216 16.176 15.7851 15.6343 17.0194 15.2777L16.9509 15.1954C16.9509 15.1954 16.0114 15.1749 15.024 15.9154C15.024 15.9154 14.0366 17.7051 14.0366 19.9131C14.0366 19.9131 14.6126 20.9074 16.128 20.9554C16.128 20.9554 16.3817 20.6469 16.5874 20.3863C15.7166 20.1257 15.3874 19.5771 15.3874 19.5771C15.4883 19.6477 15.6546 19.7393 15.6686 19.7486C16.826 20.3967 18.47 20.6091 19.9474 19.9886C20.1874 19.8994 20.4549 19.7691 20.736 19.584C20.736 19.584 20.3931 20.1463 19.4949 20.4C19.7006 20.6606 19.9474 20.9554 19.9474 20.9554C21.4629 20.9074 22.0457 19.9131 22.0457 19.9131Z" fill="#6D85D2"/>
</g>
<defs>
<filter id="filter0_d" x="0" y="0" width="40" height="40" filterUnits="userSpaceOnUse" color-interpolation-filters="sRGB">
<feFlood flood-opacity="0" result="BackgroundImageFix"/>
<feColorMatrix in="SourceAlpha" type="matrix" values="0 0 0 0 0 0 0 0 0 0 0 0 0 0 0 0 0 0 127 0"/>
<feOffset dx="3" dy="3"/>
<feColorMatrix type="matrix" values="0 0 0 0 0 0 0 0 0 0 0 0 0 0 0 0 0 0 0.25 0"/>
<feBlend mode="normal" in2="BackgroundImageFix" result="effect1_dropShadow"/>
<feBlend mode="normal" in="SourceGraphic" in2="effect1_dropShadow" result="shape"/>
</filter>
<clipPath id="clip0">
<rect width="12" height="13.7143" fill="white" transform="translate(12 12)"/>
</clipPath>
</defs>
</svg>
