<svg width="40" height="40" viewBox="0 0 40 40" fill="none" xmlns="http://www.w3.org/2000/svg">
<g filter="url(#filter0_d)">
<rect width="37" height="37" rx="18.5" fill="white"/>
</g>
<path d="M18.4398 15.4453C17.8747 15.4453 17.346 15.5911 16.8538 15.8828C16.3799 16.1562 15.9971 16.5391 15.7054 17.0312C15.432 17.5052 15.2952 18.0247 15.2952 18.5898C15.2952 19.1549 15.432 19.6836 15.7054 20.1758C15.9971 20.6497 16.3799 21.0326 16.8538 21.3242C17.346 21.5977 17.8747 21.7344 18.4398 21.7344C19.0049 21.7344 19.5244 21.5977 19.9984 21.3242C20.4906 21.0326 20.8734 20.6497 21.1468 20.1758C21.4385 19.6836 21.5843 19.1549 21.5843 18.5898C21.5843 18.0247 21.4385 17.5052 21.1468 17.0312C20.8734 16.5391 20.4906 16.1562 19.9984 15.8828C19.5244 15.5911 19.0049 15.4453 18.4398 15.4453ZM18.4398 20.6406C17.8747 20.6406 17.3916 20.4401 16.9906 20.0391C16.5895 19.638 16.389 19.1549 16.389 18.5898C16.389 18.0247 16.5895 17.5417 16.9906 17.1406C17.3916 16.7396 17.8747 16.5391 18.4398 16.5391C19.0049 16.5391 19.488 16.7396 19.889 17.1406C20.29 17.5417 20.4906 18.0247 20.4906 18.5898C20.4906 19.1549 20.29 19.638 19.889 20.0391C19.488 20.4401 19.0049 20.6406 18.4398 20.6406ZM22.4593 15.3086C22.4411 15.5091 22.359 15.6823 22.2132 15.8281C22.0856 15.974 21.9215 16.0469 21.721 16.0469C21.5205 16.0469 21.3473 15.974 21.2015 15.8281C21.0557 15.6823 20.9827 15.5091 20.9827 15.3086C20.9827 15.1081 21.0557 14.9349 21.2015 14.7891C21.3473 14.6432 21.5205 14.5703 21.721 14.5703C21.9215 14.5703 22.0947 14.6432 22.2406 14.7891C22.3864 14.9349 22.4593 15.1081 22.4593 15.3086ZM24.5374 16.0469C24.501 15.5182 24.4189 15.0625 24.2913 14.6797C24.1273 14.224 23.8721 13.832 23.5257 13.5039C23.1976 13.1576 22.8057 12.9023 22.3499 12.7383C21.9671 12.6107 21.5114 12.5378 20.9827 12.5195C20.4723 12.4831 19.6247 12.4648 18.4398 12.4648C17.2549 12.4648 16.3981 12.4831 15.8695 12.5195C15.359 12.5378 14.9124 12.6107 14.5296 12.7383C14.0739 12.9023 13.6728 13.1576 13.3265 13.5039C12.9984 13.832 12.7523 14.224 12.5882 14.6797C12.4606 15.0625 12.3786 15.5182 12.3421 16.0469C12.3239 16.5573 12.3148 17.4049 12.3148 18.5898C12.3148 19.7747 12.3239 20.6315 12.3421 21.1602C12.3786 21.6706 12.4606 22.1172 12.5882 22.5C12.7523 22.9557 12.9984 23.3568 13.3265 23.7031C13.6728 24.0312 14.0739 24.2682 14.5296 24.4141C14.9124 24.5599 15.359 24.6419 15.8695 24.6602C16.3981 24.6966 17.2549 24.7148 18.4398 24.7148C19.6247 24.7148 20.4723 24.6966 20.9827 24.6602C21.5114 24.6419 21.9671 24.569 22.3499 24.4414C22.8057 24.2773 23.1976 24.0312 23.5257 23.7031C23.8721 23.3568 24.1273 22.9557 24.2913 22.5C24.4189 22.1172 24.4919 21.6706 24.5101 21.1602C24.5465 20.6315 24.5648 19.7747 24.5648 18.5898C24.5648 17.4049 24.5557 16.5573 24.5374 16.0469ZM23.2249 22.1992C23.0062 22.7461 22.6143 23.138 22.0492 23.375C21.7575 23.4844 21.2653 23.5573 20.5726 23.5938C20.1898 23.612 19.6247 23.6211 18.8773 23.6211H18.0023C17.2731 23.6211 16.708 23.612 16.307 23.5938C15.6325 23.5573 15.1403 23.4844 14.8304 23.375C14.2835 23.1562 13.8916 22.7643 13.6546 22.1992C13.5452 21.8893 13.4723 21.3971 13.4359 20.7227C13.4176 20.3216 13.4085 19.7565 13.4085 19.0273V18.1523C13.4085 17.4232 13.4176 16.8581 13.4359 16.457C13.4723 15.7643 13.5452 15.2721 13.6546 14.9805C13.8734 14.4154 14.2653 14.0234 14.8304 13.8047C15.1403 13.6953 15.6325 13.6224 16.307 13.5859C16.708 13.5677 17.2731 13.5586 18.0023 13.5586H18.8773C19.6064 13.5586 20.1715 13.5677 20.5726 13.5859C21.2653 13.6224 21.7575 13.6953 22.0492 13.8047C22.6143 14.0234 23.0062 14.4154 23.2249 14.9805C23.3343 15.2721 23.4072 15.7643 23.4437 16.457C23.4619 16.8398 23.471 17.4049 23.471 18.1523V19.0273C23.471 19.7565 23.4619 20.3216 23.4437 20.7227C23.4072 21.3971 23.3343 21.8893 23.2249 22.1992Z" fill="#C32E96"/>
<defs>
<filter id="filter0_d" x="0" y="0" width="40" height="40" filterUnits="userSpaceOnUse" color-interpolation-filters="sRGB">
<feFlood flood-opacity="0" result="BackgroundImageFix"/>
<feColorMatrix in="SourceAlpha" type="matrix" values="0 0 0 0 0 0 0 0 0 0 0 0 0 0 0 0 0 0 127 0"/>
<feOffset dx="3" dy="3"/>
<feColorMatrix type="matrix" values="0 0 0 0 0 0 0 0 0 0 0 0 0 0 0 0 0 0 0.25 0"/>
<feBlend mode="normal" in2="BackgroundImageFix" result="effect1_dropShadow"/>
<feBlend mode="normal" in="SourceGraphic" in2="effect1_dropShadow" result="shape"/>
</filter>
</defs>
</svg>
