<svg width="313" height="292" viewBox="0 0 313 292" fill="none" xmlns="http://www.w3.org/2000/svg">
<line x1="52.5898" y1="195.737" x2="311.737" y2="195.737" stroke="#C4C1C1" stroke-width="0.525653" stroke-dasharray="2.1 2.1"/>
<line x1="52.5898" y1="146.737" x2="311.737" y2="146.737" stroke="#C4C1C1" stroke-width="0.525653" stroke-dasharray="2.1 2.1"/>
<line x1="52.5898" y1="97.7372" x2="311.737" y2="97.7372" stroke="#C4C1C1" stroke-width="0.525653" stroke-dasharray="2.1 2.1"/>
<line x1="52.5898" y1="48.7372" x2="311.737" y2="48.7372" stroke="#C4C1C1" stroke-width="0.525653" stroke-dasharray="2.1 2.1"/>
<path opacity="0.3" d="M52.5 263L80.5 228L98.5 233.5L123.513 210.957L144.868 214.949L166.223 189.014L187.59 210.3L208.945 198.659L230.3 207.12L251.668 187.353L273.022 180.039L311.999 157.229V244.487" fill="url(#paint0_linear)"/>
<path d="M53 263L80.2656 228.157L98.6204 233.501L122.988 211.22L144.343 215.212L165.698 189.277L187.065 210.563L208.42 198.922L229.775 207.383L251.142 187.616L272.497 180.302L311.737 156.966" stroke="#0F21DC" stroke-width="1.05131" stroke-miterlimit="10"/>
<rect x="52" y="49" width="1" height="214" fill="#010103"/>
<rect x="53.1152" y="264.577" width="1.57696" height="258.621" transform="rotate(-90 53.1152 264.577)" fill="#010103"/>
<circle r="2.62826" transform="matrix(1 0 0 -1 52.6283 263.629)" fill="#0F21DC"/>
<line x1="137.746" y1="263.833" x2="137.746" y2="257" stroke="black" stroke-width="1.05131"/>
<line x1="223.427" y1="263.833" x2="223.427" y2="257" stroke="black" stroke-width="1.05131"/>
<path d="M5.91197 240.618L3.79797 242.144V240.786L6.10797 239.078H7.33997V248.864H5.91197V240.618ZM10.0179 248.122H11.5019L10.1719 250.936H8.88391L10.0179 248.122ZM16.4853 249.074C15.6453 249.074 14.9173 248.869 14.3013 248.458C13.6946 248.048 13.2279 247.46 12.9013 246.694C12.5746 245.929 12.4113 245.024 12.4113 243.978C12.4113 242.933 12.5699 242.028 12.8873 241.262C13.2139 240.488 13.6806 239.895 14.2873 239.484C14.9033 239.074 15.6359 238.868 16.4853 238.868C17.3346 238.868 18.0626 239.074 18.6693 239.484C19.2853 239.895 19.7519 240.488 20.0693 241.262C20.3959 242.028 20.5593 242.933 20.5593 243.978C20.5593 245.024 20.3959 245.929 20.0693 246.694C19.7426 247.46 19.2713 248.048 18.6553 248.458C18.0486 248.869 17.3253 249.074 16.4853 249.074ZM16.4853 247.814C17.3159 247.814 17.9646 247.474 18.4313 246.792C18.9073 246.102 19.1453 245.168 19.1453 243.992C19.1453 242.816 18.9119 241.883 18.4453 241.192C17.9786 240.502 17.3253 240.156 16.4853 240.156C15.6453 240.156 14.9919 240.502 14.5253 241.192C14.0586 241.883 13.8253 242.816 13.8253 243.992C13.8253 245.168 14.0586 246.102 14.5253 246.792C15.0013 247.474 15.6546 247.814 16.4853 247.814ZM25.8915 249.074C25.0515 249.074 24.3235 248.869 23.7075 248.458C23.1008 248.048 22.6342 247.46 22.3075 246.694C21.9808 245.929 21.8175 245.024 21.8175 243.978C21.8175 242.933 21.9762 242.028 22.2935 241.262C22.6202 240.488 23.0868 239.895 23.6935 239.484C24.3095 239.074 25.0422 238.868 25.8915 238.868C26.7408 238.868 27.4688 239.074 28.0755 239.484C28.6915 239.895 29.1582 240.488 29.4755 241.262C29.8022 242.028 29.9655 242.933 29.9655 243.978C29.9655 245.024 29.8022 245.929 29.4755 246.694C29.1488 247.46 28.6775 248.048 28.0615 248.458C27.4548 248.869 26.7315 249.074 25.8915 249.074ZM25.8915 247.814C26.7222 247.814 27.3708 247.474 27.8375 246.792C28.3135 246.102 28.5515 245.168 28.5515 243.992C28.5515 242.816 28.3182 241.883 27.8515 241.192C27.3848 240.502 26.7315 240.156 25.8915 240.156C25.0515 240.156 24.3982 240.502 23.9315 241.192C23.4648 241.883 23.2315 242.816 23.2315 243.992C23.2315 245.168 23.4648 246.102 23.9315 246.792C24.4075 247.474 25.0608 247.814 25.8915 247.814ZM35.2978 249.074C34.4578 249.074 33.7298 248.869 33.1138 248.458C32.5071 248.048 32.0404 247.46 31.7138 246.694C31.3871 245.929 31.2238 245.024 31.2238 243.978C31.2238 242.933 31.3824 242.028 31.6998 241.262C32.0264 240.488 32.4931 239.895 33.0998 239.484C33.7158 239.074 34.4484 238.868 35.2978 238.868C36.1471 238.868 36.8751 239.074 37.4818 239.484C38.0978 239.895 38.5644 240.488 38.8818 241.262C39.2084 242.028 39.3718 242.933 39.3718 243.978C39.3718 245.024 39.2084 245.929 38.8818 246.694C38.5551 247.46 38.0838 248.048 37.4678 248.458C36.8611 248.869 36.1378 249.074 35.2978 249.074ZM35.2978 247.814C36.1284 247.814 36.7771 247.474 37.2438 246.792C37.7198 246.102 37.9578 245.168 37.9578 243.992C37.9578 242.816 37.7244 241.883 37.2578 241.192C36.7911 240.502 36.1378 240.156 35.2978 240.156C34.4578 240.156 33.8044 240.502 33.3378 241.192C32.8711 241.883 32.6378 242.816 32.6378 243.992C32.6378 245.168 32.8711 246.102 33.3378 246.792C33.8138 247.474 34.4671 247.814 35.2978 247.814Z" fill="#3F4040"/>
<path d="M6.97838 192.754L4.86438 194.28V192.922L7.17438 191.214H8.40638V201H6.97838V192.754ZM11.0843 200.258H12.5683L11.2383 203.072H9.95031L11.0843 200.258ZM16.5631 201.21C16.0498 201.21 15.5505 201.154 15.0651 201.042C14.5798 200.939 14.1691 200.795 13.8331 200.608V199.334C14.2158 199.567 14.6498 199.749 15.1351 199.88C15.6205 200.001 16.0825 200.062 16.5211 200.062C17.3705 200.062 18.0145 199.885 18.4531 199.53C18.8918 199.166 19.1111 198.634 19.1111 197.934C19.1111 197.271 18.9058 196.767 18.4951 196.422C18.0938 196.067 17.4918 195.89 16.6891 195.89C16.3531 195.89 15.9985 195.923 15.6251 195.988C15.2611 196.053 14.9345 196.142 14.6451 196.254L14.0151 195.89L14.3791 191.214H19.8531V192.418H15.6811L15.4711 194.938C16.0498 194.817 16.6378 194.756 17.2351 194.756C18.2711 194.756 19.0831 195.045 19.6711 195.624C20.2591 196.203 20.5531 196.973 20.5531 197.934C20.5531 198.989 20.2218 199.801 19.5591 200.37C18.8965 200.93 17.8978 201.21 16.5631 201.21ZM25.8915 201.21C25.0515 201.21 24.3235 201.005 23.7075 200.594C23.1008 200.183 22.6342 199.595 22.3075 198.83C21.9808 198.065 21.8175 197.159 21.8175 196.114C21.8175 195.069 21.9762 194.163 22.2935 193.398C22.6202 192.623 23.0868 192.031 23.6935 191.62C24.3095 191.209 25.0422 191.004 25.8915 191.004C26.7408 191.004 27.4688 191.209 28.0755 191.62C28.6915 192.031 29.1582 192.623 29.4755 193.398C29.8022 194.163 29.9655 195.069 29.9655 196.114C29.9655 197.159 29.8022 198.065 29.4755 198.83C29.1488 199.595 28.6775 200.183 28.0615 200.594C27.4548 201.005 26.7315 201.21 25.8915 201.21ZM25.8915 199.95C26.7222 199.95 27.3708 199.609 27.8375 198.928C28.3135 198.237 28.5515 197.304 28.5515 196.128C28.5515 194.952 28.3182 194.019 27.8515 193.328C27.3848 192.637 26.7315 192.292 25.8915 192.292C25.0515 192.292 24.3982 192.637 23.9315 193.328C23.4648 194.019 23.2315 194.952 23.2315 196.128C23.2315 197.304 23.4648 198.237 23.9315 198.928C24.4075 199.609 25.0608 199.95 25.8915 199.95ZM35.2978 201.21C34.4578 201.21 33.7298 201.005 33.1138 200.594C32.5071 200.183 32.0404 199.595 31.7138 198.83C31.3871 198.065 31.2238 197.159 31.2238 196.114C31.2238 195.069 31.3824 194.163 31.6998 193.398C32.0264 192.623 32.4931 192.031 33.0998 191.62C33.7158 191.209 34.4484 191.004 35.2978 191.004C36.1471 191.004 36.8751 191.209 37.4818 191.62C38.0978 192.031 38.5644 192.623 38.8818 193.398C39.2084 194.163 39.3718 195.069 39.3718 196.114C39.3718 197.159 39.2084 198.065 38.8818 198.83C38.5551 199.595 38.0838 200.183 37.4678 200.594C36.8611 201.005 36.1378 201.21 35.2978 201.21ZM35.2978 199.95C36.1284 199.95 36.7771 199.609 37.2438 198.928C37.7198 198.237 37.9578 197.304 37.9578 196.128C37.9578 194.952 37.7244 194.019 37.2578 193.328C36.7911 192.637 36.1378 192.292 35.2978 192.292C34.4578 192.292 33.8044 192.637 33.3378 193.328C32.8711 194.019 32.6378 194.952 32.6378 196.128C32.6378 197.304 32.8711 198.237 33.3378 198.928C33.8138 199.609 34.4671 199.95 35.2978 199.95Z" fill="#3F4040"/>
<path d="M0.749141 151.062L2.86314 149.032C3.04981 148.845 3.31114 148.603 3.64714 148.304C4.17914 147.819 4.58514 147.427 4.86514 147.128C5.14514 146.829 5.37381 146.512 5.55114 146.176C5.72847 145.831 5.81714 145.462 5.81714 145.07C5.81714 144.491 5.64914 144.053 5.31314 143.754C4.97714 143.446 4.48714 143.292 3.84314 143.292C3.40447 143.292 2.95181 143.371 2.48514 143.53C2.02781 143.689 1.59847 143.922 1.19714 144.23V142.858C1.98114 142.289 2.93781 142.004 4.06714 142.004C5.07514 142.004 5.85914 142.275 6.41914 142.816C6.97914 143.348 7.25914 144.076 7.25914 145C7.25914 145.448 7.16114 145.877 6.96514 146.288C6.77847 146.699 6.51247 147.105 6.16714 147.506C5.82181 147.898 5.35514 148.379 4.76714 148.948L2.86314 150.81H7.62314V152H0.749141V151.062ZM10.0179 151.258H11.5019L10.1719 154.072H8.88391L10.0179 151.258ZM16.4853 152.21C15.6453 152.21 14.9173 152.005 14.3013 151.594C13.6946 151.183 13.2279 150.595 12.9013 149.83C12.5746 149.065 12.4113 148.159 12.4113 147.114C12.4113 146.069 12.5699 145.163 12.8873 144.398C13.2139 143.623 13.6806 143.031 14.2873 142.62C14.9033 142.209 15.6359 142.004 16.4853 142.004C17.3346 142.004 18.0626 142.209 18.6693 142.62C19.2853 143.031 19.7519 143.623 20.0693 144.398C20.3959 145.163 20.5593 146.069 20.5593 147.114C20.5593 148.159 20.3959 149.065 20.0693 149.83C19.7426 150.595 19.2713 151.183 18.6553 151.594C18.0486 152.005 17.3253 152.21 16.4853 152.21ZM16.4853 150.95C17.3159 150.95 17.9646 150.609 18.4313 149.928C18.9073 149.237 19.1453 148.304 19.1453 147.128C19.1453 145.952 18.9119 145.019 18.4453 144.328C17.9786 143.637 17.3253 143.292 16.4853 143.292C15.6453 143.292 14.9919 143.637 14.5253 144.328C14.0586 145.019 13.8253 145.952 13.8253 147.128C13.8253 148.304 14.0586 149.237 14.5253 149.928C15.0013 150.609 15.6546 150.95 16.4853 150.95ZM25.8915 152.21C25.0515 152.21 24.3235 152.005 23.7075 151.594C23.1008 151.183 22.6342 150.595 22.3075 149.83C21.9808 149.065 21.8175 148.159 21.8175 147.114C21.8175 146.069 21.9762 145.163 22.2935 144.398C22.6202 143.623 23.0868 143.031 23.6935 142.62C24.3095 142.209 25.0422 142.004 25.8915 142.004C26.7408 142.004 27.4688 142.209 28.0755 142.62C28.6915 143.031 29.1582 143.623 29.4755 144.398C29.8022 145.163 29.9655 146.069 29.9655 147.114C29.9655 148.159 29.8022 149.065 29.4755 149.83C29.1488 150.595 28.6775 151.183 28.0615 151.594C27.4548 152.005 26.7315 152.21 25.8915 152.21ZM25.8915 150.95C26.7222 150.95 27.3708 150.609 27.8375 149.928C28.3135 149.237 28.5515 148.304 28.5515 147.128C28.5515 145.952 28.3182 145.019 27.8515 144.328C27.3848 143.637 26.7315 143.292 25.8915 143.292C25.0515 143.292 24.3982 143.637 23.9315 144.328C23.4648 145.019 23.2315 145.952 23.2315 147.128C23.2315 148.304 23.4648 149.237 23.9315 149.928C24.4075 150.609 25.0608 150.95 25.8915 150.95ZM35.2978 152.21C34.4578 152.21 33.7298 152.005 33.1138 151.594C32.5071 151.183 32.0404 150.595 31.7138 149.83C31.3871 149.065 31.2238 148.159 31.2238 147.114C31.2238 146.069 31.3824 145.163 31.6998 144.398C32.0264 143.623 32.4931 143.031 33.0998 142.62C33.7158 142.209 34.4484 142.004 35.2978 142.004C36.1471 142.004 36.8751 142.209 37.4818 142.62C38.0978 143.031 38.5644 143.623 38.8818 144.398C39.2084 145.163 39.3718 146.069 39.3718 147.114C39.3718 148.159 39.2084 149.065 38.8818 149.83C38.5551 150.595 38.0838 151.183 37.4678 151.594C36.8611 152.005 36.1378 152.21 35.2978 152.21ZM35.2978 150.95C36.1284 150.95 36.7771 150.609 37.2438 149.928C37.7198 149.237 37.9578 148.304 37.9578 147.128C37.9578 145.952 37.7244 145.019 37.2578 144.328C36.7911 143.637 36.1378 143.292 35.2978 143.292C34.4578 143.292 33.8044 143.637 33.3378 144.328C32.8711 145.019 32.6378 145.952 32.6378 147.128C32.6378 148.304 32.8711 149.237 33.3378 149.928C33.8138 150.609 34.4671 150.95 35.2978 150.95Z" fill="#3F4040"/>
<path d="M1.81555 101.062L3.92955 99.032C4.11621 98.8453 4.37755 98.6027 4.71355 98.304C5.24555 97.8187 5.65155 97.4267 5.93155 97.128C6.21155 96.8293 6.44021 96.512 6.61755 96.176C6.79488 95.8307 6.88355 95.462 6.88355 95.07C6.88355 94.4913 6.71555 94.0527 6.37955 93.754C6.04355 93.446 5.55355 93.292 4.90955 93.292C4.47088 93.292 4.01821 93.3713 3.55155 93.53C3.09421 93.6887 2.66488 93.922 2.26355 94.23V92.858C3.04755 92.2887 4.00421 92.004 5.13355 92.004C6.14155 92.004 6.92555 92.2747 7.48555 92.816C8.04555 93.348 8.32555 94.076 8.32555 95C8.32555 95.448 8.22755 95.8773 8.03155 96.288C7.84488 96.6987 7.57888 97.1047 7.23355 97.506C6.88821 97.898 6.42155 98.3787 5.83355 98.948L3.92955 100.81H8.68955V102H1.81555V101.062ZM11.0843 101.258H12.5683L11.2383 104.072H9.95031L11.0843 101.258ZM16.5631 102.21C16.0498 102.21 15.5505 102.154 15.0651 102.042C14.5798 101.939 14.1691 101.795 13.8331 101.608V100.334C14.2158 100.567 14.6498 100.749 15.1351 100.88C15.6205 101.001 16.0825 101.062 16.5211 101.062C17.3705 101.062 18.0145 100.885 18.4531 100.53C18.8918 100.166 19.1111 99.634 19.1111 98.934C19.1111 98.2713 18.9058 97.7673 18.4951 97.422C18.0938 97.0673 17.4918 96.89 16.6891 96.89C16.3531 96.89 15.9985 96.9227 15.6251 96.988C15.2611 97.0533 14.9345 97.142 14.6451 97.254L14.0151 96.89L14.3791 92.214H19.8531V93.418H15.6811L15.4711 95.938C16.0498 95.8167 16.6378 95.756 17.2351 95.756C18.2711 95.756 19.0831 96.0453 19.6711 96.624C20.2591 97.2027 20.5531 97.9727 20.5531 98.934C20.5531 99.9887 20.2218 100.801 19.5591 101.37C18.8965 101.93 17.8978 102.21 16.5631 102.21ZM25.8915 102.21C25.0515 102.21 24.3235 102.005 23.7075 101.594C23.1008 101.183 22.6342 100.595 22.3075 99.83C21.9808 99.0647 21.8175 98.1593 21.8175 97.114C21.8175 96.0687 21.9762 95.1633 22.2935 94.398C22.6202 93.6233 23.0868 93.0307 23.6935 92.62C24.3095 92.2093 25.0422 92.004 25.8915 92.004C26.7408 92.004 27.4688 92.2093 28.0755 92.62C28.6915 93.0307 29.1582 93.6233 29.4755 94.398C29.8022 95.1633 29.9655 96.0687 29.9655 97.114C29.9655 98.1593 29.8022 99.0647 29.4755 99.83C29.1488 100.595 28.6775 101.183 28.0615 101.594C27.4548 102.005 26.7315 102.21 25.8915 102.21ZM25.8915 100.95C26.7222 100.95 27.3708 100.609 27.8375 99.928C28.3135 99.2373 28.5515 98.304 28.5515 97.128C28.5515 95.952 28.3182 95.0187 27.8515 94.328C27.3848 93.6373 26.7315 93.292 25.8915 93.292C25.0515 93.292 24.3982 93.6373 23.9315 94.328C23.4648 95.0187 23.2315 95.952 23.2315 97.128C23.2315 98.304 23.4648 99.2373 23.9315 99.928C24.4075 100.609 25.0608 100.95 25.8915 100.95ZM35.2978 102.21C34.4578 102.21 33.7298 102.005 33.1138 101.594C32.5071 101.183 32.0404 100.595 31.7138 99.83C31.3871 99.0647 31.2238 98.1593 31.2238 97.114C31.2238 96.0687 31.3824 95.1633 31.6998 94.398C32.0264 93.6233 32.4931 93.0307 33.0998 92.62C33.7158 92.2093 34.4484 92.004 35.2978 92.004C36.1471 92.004 36.8751 92.2093 37.4818 92.62C38.0978 93.0307 38.5644 93.6233 38.8818 94.398C39.2084 95.1633 39.3718 96.0687 39.3718 97.114C39.3718 98.1593 39.2084 99.0647 38.8818 99.83C38.5551 100.595 38.0838 101.183 37.4678 101.594C36.8611 102.005 36.1378 102.21 35.2978 102.21ZM35.2978 100.95C36.1284 100.95 36.7771 100.609 37.2438 99.928C37.7198 99.2373 37.9578 98.304 37.9578 97.128C37.9578 95.952 37.7244 95.0187 37.2578 94.328C36.7911 93.6373 36.1378 93.292 35.2978 93.292C34.4578 93.292 33.8044 93.6373 33.3378 94.328C32.8711 95.0187 32.6378 95.952 32.6378 97.128C32.6378 98.304 32.8711 99.2373 33.3378 99.928C33.8138 100.609 34.4671 100.95 35.2978 100.95Z" fill="#3F4040"/>
<path d="M115.912 276.214H117.34L120.826 283.844L124.312 276.214H125.74V286H124.354V279.042L121.176 286H120.476L117.284 279.042V286H115.912V276.214ZM129.968 286.21C129.156 286.21 128.503 286.005 128.008 285.594C127.523 285.174 127.28 284.609 127.28 283.9C127.28 283.153 127.514 282.579 127.98 282.178C128.456 281.767 129.128 281.562 129.996 281.562C130.92 281.562 131.704 281.749 132.348 282.122V281.772C132.348 281.24 132.185 280.848 131.858 280.596C131.541 280.335 131.037 280.204 130.346 280.204C129.936 280.204 129.534 280.246 129.142 280.33C128.76 280.405 128.414 280.512 128.106 280.652V279.504C128.386 279.373 128.75 279.271 129.198 279.196C129.646 279.112 130.08 279.07 130.5 279.07C131.611 279.07 132.432 279.317 132.964 279.812C133.506 280.297 133.776 280.974 133.776 281.842V286H132.446V285.244C132.157 285.561 131.812 285.804 131.41 285.972C131.018 286.131 130.538 286.21 129.968 286.21ZM130.318 285.132C130.766 285.132 131.172 285.043 131.536 284.866C131.9 284.689 132.171 284.441 132.348 284.124V283.214C131.742 282.822 131.065 282.626 130.318 282.626C129.777 282.626 129.371 282.733 129.1 282.948C128.839 283.153 128.708 283.471 128.708 283.9C128.708 284.721 129.245 285.132 130.318 285.132ZM135.531 279.28H136.903V280.484C137.183 280.073 137.575 279.77 138.079 279.574C138.592 279.378 139.185 279.28 139.857 279.28V280.386C139.138 280.386 138.522 280.503 138.009 280.736C137.496 280.969 137.141 281.338 136.945 281.842V286H135.531V279.28ZM146.025 285.062L148.139 283.032C148.325 282.845 148.587 282.603 148.923 282.304C149.455 281.819 149.861 281.427 150.141 281.128C150.421 280.829 150.649 280.512 150.827 280.176C151.004 279.831 151.093 279.462 151.093 279.07C151.093 278.491 150.925 278.053 150.589 277.754C150.253 277.446 149.763 277.292 149.119 277.292C148.68 277.292 148.227 277.371 147.761 277.53C147.303 277.689 146.874 277.922 146.473 278.23V276.858C147.257 276.289 148.213 276.004 149.343 276.004C150.351 276.004 151.135 276.275 151.695 276.816C152.255 277.348 152.535 278.076 152.535 279C152.535 279.448 152.437 279.877 152.241 280.288C152.054 280.699 151.788 281.105 151.443 281.506C151.097 281.898 150.631 282.379 150.043 282.948L148.139 284.81H152.899V286H146.025V285.062ZM157.743 286.21C156.642 286.21 155.769 285.963 155.125 285.468C154.481 284.964 154.159 284.25 154.159 283.326C154.159 282.701 154.323 282.178 154.649 281.758C154.976 281.329 155.41 281.039 155.951 280.89C155.503 280.703 155.149 280.419 154.887 280.036C154.626 279.644 154.495 279.191 154.495 278.678C154.495 277.857 154.789 277.208 155.377 276.732C155.965 276.247 156.754 276.004 157.743 276.004C158.723 276.004 159.507 276.247 160.095 276.732C160.683 277.208 160.977 277.857 160.977 278.678C160.977 279.191 160.847 279.644 160.585 280.036C160.324 280.419 159.969 280.703 159.521 280.89C160.063 281.039 160.497 281.329 160.823 281.758C161.159 282.178 161.327 282.701 161.327 283.326C161.327 284.25 161.005 284.964 160.361 285.468C159.717 285.963 158.845 286.21 157.743 286.21ZM157.743 280.456C158.294 280.456 158.742 280.307 159.087 280.008C159.433 279.7 159.605 279.299 159.605 278.804C159.605 278.3 159.433 277.889 159.087 277.572C158.751 277.255 158.303 277.096 157.743 277.096C157.183 277.096 156.731 277.255 156.385 277.572C156.049 277.889 155.881 278.3 155.881 278.804C155.881 279.299 156.054 279.7 156.399 280.008C156.745 280.307 157.193 280.456 157.743 280.456ZM157.743 285.174C158.415 285.174 158.943 285.001 159.325 284.656C159.708 284.311 159.899 283.835 159.899 283.228C159.899 282.649 159.699 282.192 159.297 281.856C158.905 281.52 158.387 281.352 157.743 281.352C157.099 281.352 156.577 281.52 156.175 281.856C155.774 282.192 155.573 282.649 155.573 283.228C155.573 283.835 155.765 284.311 156.147 284.656C156.539 285.001 157.071 285.174 157.743 285.174Z" fill="#3F4040"/>
<path d="M209.407 276.214H210.779L214.685 286H213.229L212.249 283.564H207.923L206.971 286H205.501L209.407 276.214ZM211.857 282.374L210.093 277.796L208.329 282.374H211.857ZM216.226 279.28H217.598V280.274C218.289 279.471 219.222 279.07 220.398 279.07C221.07 279.07 221.672 279.219 222.204 279.518C222.746 279.817 223.166 280.237 223.464 280.778C223.772 281.31 223.926 281.931 223.926 282.64C223.926 283.34 223.772 283.961 223.464 284.502C223.166 285.043 222.75 285.463 222.218 285.762C221.686 286.061 221.08 286.21 220.398 286.21C219.838 286.21 219.316 286.117 218.83 285.93C218.345 285.743 217.948 285.468 217.64 285.104V289.066H216.226V279.28ZM220.076 285.09C220.534 285.09 220.944 284.992 221.308 284.796C221.682 284.591 221.971 284.301 222.176 283.928C222.391 283.555 222.498 283.125 222.498 282.64C222.498 282.155 222.391 281.73 222.176 281.366C221.971 280.993 221.682 280.708 221.308 280.512C220.944 280.307 220.534 280.204 220.076 280.204C219.507 280.204 219.003 280.353 218.564 280.652C218.135 280.951 217.827 281.361 217.64 281.884V283.396C217.799 283.909 218.102 284.32 218.55 284.628C218.998 284.936 219.507 285.09 220.076 285.09ZM225.469 279.28H226.841V280.484C227.121 280.073 227.513 279.77 228.017 279.574C228.53 279.378 229.123 279.28 229.795 279.28V280.386C229.076 280.386 228.46 280.503 227.947 280.736C227.433 280.969 227.079 281.338 226.883 281.842V286H225.469V279.28ZM239.546 286.21C238.445 286.21 237.572 285.963 236.928 285.468C236.284 284.964 235.962 284.25 235.962 283.326C235.962 282.701 236.125 282.178 236.452 281.758C236.779 281.329 237.213 281.039 237.754 280.89C237.306 280.703 236.951 280.419 236.69 280.036C236.429 279.644 236.298 279.191 236.298 278.678C236.298 277.857 236.592 277.208 237.18 276.732C237.768 276.247 238.557 276.004 239.546 276.004C240.526 276.004 241.31 276.247 241.898 276.732C242.486 277.208 242.78 277.857 242.78 278.678C242.78 279.191 242.649 279.644 242.388 280.036C242.127 280.419 241.772 280.703 241.324 280.89C241.865 281.039 242.299 281.329 242.626 281.758C242.962 282.178 243.13 282.701 243.13 283.326C243.13 284.25 242.808 284.964 242.164 285.468C241.52 285.963 240.647 286.21 239.546 286.21ZM239.546 280.456C240.097 280.456 240.545 280.307 240.89 280.008C241.235 279.7 241.408 279.299 241.408 278.804C241.408 278.3 241.235 277.889 240.89 277.572C240.554 277.255 240.106 277.096 239.546 277.096C238.986 277.096 238.533 277.255 238.188 277.572C237.852 277.889 237.684 278.3 237.684 278.804C237.684 279.299 237.857 279.7 238.202 280.008C238.547 280.307 238.995 280.456 239.546 280.456ZM239.546 285.174C240.218 285.174 240.745 285.001 241.128 284.656C241.511 284.311 241.702 283.835 241.702 283.228C241.702 282.649 241.501 282.192 241.1 281.856C240.708 281.52 240.19 281.352 239.546 281.352C238.902 281.352 238.379 281.52 237.978 281.856C237.577 282.192 237.376 282.649 237.376 283.228C237.376 283.835 237.567 284.311 237.95 284.656C238.342 285.001 238.874 285.174 239.546 285.174Z" fill="#3F4040"/>
<path d="M3.82684 55.21C3.25751 55.21 2.71151 55.1633 2.18884 55.07C1.67551 54.986 1.22751 54.8553 0.844844 54.678V53.502C1.71284 53.894 2.64618 54.09 3.64484 54.09C4.50351 54.09 5.13818 53.936 5.54884 53.628C5.96884 53.3107 6.17884 52.8627 6.17884 52.284C6.17884 51.6867 5.96418 51.262 5.53484 51.01C5.10551 50.7487 4.45218 50.618 3.57484 50.618H2.42684V49.47H3.54684C4.24684 49.47 4.81151 49.33 5.24084 49.05C5.67018 48.7607 5.88484 48.3407 5.88484 47.79C5.88484 47.2487 5.70751 46.838 5.35284 46.558C4.99818 46.278 4.48484 46.138 3.81284 46.138C3.29018 46.138 2.81884 46.1987 2.39884 46.32C1.97884 46.4413 1.54484 46.642 1.09684 46.922V45.746C1.91818 45.2513 2.87951 45.004 3.98084 45.004C5.07284 45.004 5.90351 45.2467 6.47284 45.732C7.04218 46.2173 7.32684 46.8893 7.32684 47.748C7.32684 48.2707 7.18684 48.728 6.90684 49.12C6.62684 49.512 6.20684 49.8153 5.64684 50.03C6.28151 50.1793 6.76684 50.45 7.10284 50.842C7.44818 51.234 7.62084 51.7287 7.62084 52.326C7.62084 53.2127 7.31751 53.9173 6.71084 54.44C6.10418 54.9533 5.14284 55.21 3.82684 55.21ZM10.0179 54.258H11.5019L10.1719 57.072H8.88391L10.0179 54.258ZM16.4853 55.21C15.6453 55.21 14.9173 55.0047 14.3013 54.594C13.6946 54.1833 13.2279 53.5953 12.9013 52.83C12.5746 52.0647 12.4113 51.1593 12.4113 50.114C12.4113 49.0687 12.5699 48.1633 12.8873 47.398C13.2139 46.6233 13.6806 46.0307 14.2873 45.62C14.9033 45.2093 15.6359 45.004 16.4853 45.004C17.3346 45.004 18.0626 45.2093 18.6693 45.62C19.2853 46.0307 19.7519 46.6233 20.0693 47.398C20.3959 48.1633 20.5593 49.0687 20.5593 50.114C20.5593 51.1593 20.3959 52.0647 20.0693 52.83C19.7426 53.5953 19.2713 54.1833 18.6553 54.594C18.0486 55.0047 17.3253 55.21 16.4853 55.21ZM16.4853 53.95C17.3159 53.95 17.9646 53.6093 18.4313 52.928C18.9073 52.2373 19.1453 51.304 19.1453 50.128C19.1453 48.952 18.9119 48.0187 18.4453 47.328C17.9786 46.6373 17.3253 46.292 16.4853 46.292C15.6453 46.292 14.9919 46.6373 14.5253 47.328C14.0586 48.0187 13.8253 48.952 13.8253 50.128C13.8253 51.304 14.0586 52.2373 14.5253 52.928C15.0013 53.6093 15.6546 53.95 16.4853 53.95ZM25.8915 55.21C25.0515 55.21 24.3235 55.0047 23.7075 54.594C23.1008 54.1833 22.6342 53.5953 22.3075 52.83C21.9808 52.0647 21.8175 51.1593 21.8175 50.114C21.8175 49.0687 21.9762 48.1633 22.2935 47.398C22.6202 46.6233 23.0868 46.0307 23.6935 45.62C24.3095 45.2093 25.0422 45.004 25.8915 45.004C26.7408 45.004 27.4688 45.2093 28.0755 45.62C28.6915 46.0307 29.1582 46.6233 29.4755 47.398C29.8022 48.1633 29.9655 49.0687 29.9655 50.114C29.9655 51.1593 29.8022 52.0647 29.4755 52.83C29.1488 53.5953 28.6775 54.1833 28.0615 54.594C27.4548 55.0047 26.7315 55.21 25.8915 55.21ZM25.8915 53.95C26.7222 53.95 27.3708 53.6093 27.8375 52.928C28.3135 52.2373 28.5515 51.304 28.5515 50.128C28.5515 48.952 28.3182 48.0187 27.8515 47.328C27.3848 46.6373 26.7315 46.292 25.8915 46.292C25.0515 46.292 24.3982 46.6373 23.9315 47.328C23.4648 48.0187 23.2315 48.952 23.2315 50.128C23.2315 51.304 23.4648 52.2373 23.9315 52.928C24.4075 53.6093 25.0608 53.95 25.8915 53.95ZM35.2978 55.21C34.4578 55.21 33.7298 55.0047 33.1138 54.594C32.5071 54.1833 32.0404 53.5953 31.7138 52.83C31.3871 52.0647 31.2238 51.1593 31.2238 50.114C31.2238 49.0687 31.3824 48.1633 31.6998 47.398C32.0264 46.6233 32.4931 46.0307 33.0998 45.62C33.7158 45.2093 34.4484 45.004 35.2978 45.004C36.1471 45.004 36.8751 45.2093 37.4818 45.62C38.0978 46.0307 38.5644 46.6233 38.8818 47.398C39.2084 48.1633 39.3718 49.0687 39.3718 50.114C39.3718 51.1593 39.2084 52.0647 38.8818 52.83C38.5551 53.5953 38.0838 54.1833 37.4678 54.594C36.8611 55.0047 36.1378 55.21 35.2978 55.21ZM35.2978 53.95C36.1284 53.95 36.7771 53.6093 37.2438 52.928C37.7198 52.2373 37.9578 51.304 37.9578 50.128C37.9578 48.952 37.7244 48.0187 37.2578 47.328C36.7911 46.6373 36.1378 46.292 35.2978 46.292C34.4578 46.292 33.8044 46.6373 33.3378 47.328C32.8711 48.0187 32.6378 48.952 32.6378 50.128C32.6378 51.304 32.8711 52.2373 33.3378 52.928C33.8138 53.6093 34.4671 53.95 35.2978 53.95Z" fill="#3F4040"/>
<path d="M48.1131 13.754L45.9991 15.28V13.922L48.3091 12.214H49.5411V22H48.1131V13.754ZM51.3651 12.214H54.5151C55.5697 12.214 56.4844 12.41 57.2591 12.802C58.0337 13.194 58.6264 13.754 59.0371 14.482C59.4571 15.21 59.6671 16.0687 59.6671 17.058C59.6671 18.682 59.1957 19.914 58.2531 20.754C57.3197 21.5847 56.0084 22 54.3191 22H51.3651V12.214ZM54.3051 20.81C55.6117 20.81 56.5917 20.488 57.2451 19.844C57.8984 19.2 58.2251 18.2713 58.2251 17.058C58.2251 15.938 57.9031 15.0513 57.2591 14.398C56.6244 13.7447 55.7144 13.418 54.5291 13.418H52.7931V20.81H54.3051Z" fill="#3F4040"/>
<path d="M107.579 13.418H102.385V12.214H109.035V13.264L105.101 22H103.701L107.579 13.418ZM110.433 12.214H113.583C114.638 12.214 115.553 12.41 116.327 12.802C117.102 13.194 117.695 13.754 118.105 14.482C118.525 15.21 118.735 16.0687 118.735 17.058C118.735 18.682 118.264 19.914 117.321 20.754C116.388 21.5847 115.077 22 113.387 22H110.433V12.214ZM113.373 20.81C114.68 20.81 115.66 20.488 116.313 19.844C116.967 19.2 117.293 18.2713 117.293 17.058C117.293 15.938 116.971 15.0513 116.327 14.398C115.693 13.7447 114.783 13.418 113.597 13.418H111.861V20.81H113.373Z" fill="#3F4040"/>
<ellipse cx="176" cy="17.5" rx="18" ry="17.5" fill="#0F21DC"/>
<path d="M169.998 14.3459L167.926 15.8439V14.1919L170.278 12.4699H171.762V22.2559H169.998V14.3459ZM173.443 12.4699H175.179L178.455 19.6379L181.731 12.4699H183.467V22.2559H181.787V15.8999L178.875 22.2559H178.035L175.123 15.8999V22.2559H173.443V12.4699Z" fill="white"/>
<path d="M236.317 13.754L234.203 15.28V13.922L236.513 12.214H237.745V22H236.317V13.754ZM242.845 18.29L239.289 12.214H240.815L243.545 16.932L246.317 12.214H247.829L244.231 18.29V22H242.845V18.29Z" fill="#3F4040"/>
<path d="M283.82 12.214H285.248L288.734 19.844L292.22 12.214H293.648V22H292.262V15.042L289.084 22H288.384L285.192 15.042V22H283.82V12.214ZM297.877 22.21C297.065 22.21 296.411 22.0047 295.917 21.594C295.431 21.174 295.189 20.6093 295.189 19.9C295.189 19.1533 295.422 18.5793 295.889 18.178C296.365 17.7673 297.037 17.562 297.905 17.562C298.829 17.562 299.613 17.7487 300.257 18.122V17.772C300.257 17.24 300.093 16.848 299.767 16.596C299.449 16.3347 298.945 16.204 298.255 16.204C297.844 16.204 297.443 16.246 297.051 16.33C296.668 16.4047 296.323 16.512 296.015 16.652V15.504C296.295 15.3733 296.659 15.2707 297.107 15.196C297.555 15.112 297.989 15.07 298.409 15.07C299.519 15.07 300.341 15.3173 300.873 15.812C301.414 16.2973 301.685 16.974 301.685 17.842V22H300.355V21.244C300.065 21.5613 299.72 21.804 299.319 21.972C298.927 22.1307 298.446 22.21 297.877 22.21ZM298.227 21.132C298.675 21.132 299.081 21.0433 299.445 20.866C299.809 20.6887 300.079 20.4413 300.257 20.124V19.214C299.65 18.822 298.973 18.626 298.227 18.626C297.685 18.626 297.279 18.7333 297.009 18.948C296.747 19.1533 296.617 19.4707 296.617 19.9C296.617 20.7213 297.153 21.132 298.227 21.132ZM305.688 18.486L303.056 15.28H304.666L306.486 17.506L308.32 15.28H309.93L307.298 18.486L310.182 22H308.586L306.486 19.466L304.4 22H302.804L305.688 18.486Z" fill="#3F4040"/>
<g filter="url(#filter0_d)">
<rect x="77.2969" y="169.579" width="88.8353" height="17.3465" rx="8.67327" fill="white"/>
</g>
<path d="M85.5733 176.399L84.462 177.201V176.487L85.6763 175.589H86.3239V180.733H85.5733V176.399ZM87.7315 180.343H88.5116L87.8125 181.823H87.1355L87.7315 180.343ZM91.8331 176.222H89.1029V175.589H92.5985V176.141L90.5305 180.733H89.7946L91.8331 176.222ZM95.8433 176.222H93.113V175.589H96.6086V176.141L94.5407 180.733H93.8048L95.8433 176.222ZM99.1322 180.844C98.7643 180.844 98.4331 180.76 98.1387 180.594C97.8493 180.422 97.6187 180.172 97.447 179.843C97.2802 179.509 97.1968 179.109 97.1968 178.643C97.1968 177.623 97.4053 176.84 97.8223 176.296C98.2442 175.751 98.8477 175.479 99.6327 175.479C99.9025 175.479 100.143 175.508 100.354 175.567V176.2C100.182 176.127 99.9614 176.09 99.6915 176.09C98.6416 176.09 98.0652 176.72 97.9621 177.981C98.1093 177.795 98.3031 177.655 98.5435 177.562C98.7888 177.463 99.0562 177.414 99.3456 177.414C99.6793 177.414 99.9712 177.483 100.221 177.62C100.472 177.758 100.665 177.954 100.803 178.209C100.945 178.464 101.016 178.761 101.016 179.1C101.016 179.433 100.94 179.733 100.788 179.997C100.641 180.262 100.425 180.471 100.14 180.623C99.8559 180.77 99.5198 180.844 99.1322 180.844ZM99.1322 180.262C99.4757 180.262 99.7504 180.159 99.9565 179.953C100.167 179.742 100.273 179.465 100.273 179.122C100.273 178.778 100.167 178.506 99.9565 178.305C99.7504 178.104 99.4757 178.003 99.1322 178.003C98.9213 178.003 98.7275 178.05 98.5509 178.143C98.3791 178.236 98.2418 178.369 98.1387 178.54C98.0406 178.712 97.9916 178.911 97.9916 179.136C97.9916 179.338 98.0382 179.524 98.1314 179.696C98.2295 179.867 98.3644 180.005 98.5361 180.108C98.7079 180.211 98.9066 180.262 99.1322 180.262ZM102.027 180.733C101.929 180.733 101.846 180.702 101.777 180.638C101.713 180.569 101.681 180.486 101.681 180.388C101.681 180.289 101.713 180.206 101.777 180.137C101.846 180.069 101.929 180.034 102.027 180.034C102.125 180.034 102.209 180.069 102.277 180.137C102.346 180.206 102.38 180.289 102.38 180.388C102.38 180.486 102.346 180.569 102.277 180.638C102.209 180.702 102.125 180.733 102.027 180.733ZM105.394 179.468H102.892V178.989L105.387 175.589H106.152V178.879H106.947V179.468H106.152V180.733H105.394V179.468ZM105.483 178.879V176.487L103.739 178.879H105.483ZM109.601 180.844C109.159 180.844 108.777 180.736 108.453 180.52C108.134 180.304 107.889 179.995 107.717 179.593C107.545 179.19 107.459 178.715 107.459 178.165C107.459 177.616 107.543 177.14 107.71 176.737C107.881 176.33 108.127 176.019 108.445 175.803C108.769 175.587 109.154 175.479 109.601 175.479C110.047 175.479 110.43 175.587 110.749 175.803C111.073 176.019 111.318 176.33 111.485 176.737C111.656 177.14 111.742 177.616 111.742 178.165C111.742 178.715 111.656 179.19 111.485 179.593C111.313 179.995 111.065 180.304 110.742 180.52C110.423 180.736 110.042 180.844 109.601 180.844ZM109.601 180.181C110.037 180.181 110.378 180.002 110.624 179.644C110.874 179.281 110.999 178.791 110.999 178.172C110.999 177.554 110.876 177.064 110.631 176.701C110.386 176.338 110.042 176.156 109.601 176.156C109.159 176.156 108.816 176.338 108.571 176.701C108.325 177.064 108.203 177.554 108.203 178.172C108.203 178.791 108.325 179.281 108.571 179.644C108.821 180.002 109.164 180.181 109.601 180.181ZM122.025 176.222H120.428V175.589H124.38V176.222H122.783V180.733H122.025V176.222ZM125.041 175.295H125.785V177.687C126.123 177.289 126.574 177.091 127.139 177.091C127.61 177.091 127.96 177.216 128.191 177.466C128.422 177.716 128.537 178.052 128.537 178.474V180.733H127.794V178.548C127.794 177.974 127.519 177.687 126.969 177.687C126.734 177.687 126.513 177.743 126.307 177.856C126.106 177.964 125.932 178.131 125.785 178.356V180.733H125.041V175.295ZM130.86 180.844C130.384 180.844 130.023 180.716 129.778 180.461C129.537 180.206 129.417 179.865 129.417 179.438V177.201H130.16V179.409C130.16 179.973 130.443 180.255 131.007 180.255C131.502 180.255 131.89 180.032 132.169 179.585V177.201H132.913V180.733H132.192V180.233C132.025 180.444 131.826 180.598 131.595 180.697C131.37 180.795 131.124 180.844 130.86 180.844ZM134.315 180.343H135.096L134.396 181.823H133.719L134.315 180.343ZM139.595 176.399L138.484 177.201V176.487L139.698 175.589H140.346V180.733H139.595V176.399ZM143.042 180.844C142.463 180.844 142.004 180.714 141.665 180.454C141.327 180.189 141.158 179.814 141.158 179.328C141.158 178.999 141.243 178.724 141.415 178.504C141.587 178.278 141.815 178.126 142.1 178.047C141.864 177.949 141.678 177.8 141.54 177.598C141.403 177.392 141.334 177.154 141.334 176.885C141.334 176.453 141.489 176.112 141.798 175.862C142.107 175.607 142.521 175.479 143.042 175.479C143.557 175.479 143.969 175.607 144.278 175.862C144.587 176.112 144.741 176.453 144.741 176.885C144.741 177.154 144.673 177.392 144.535 177.598C144.398 177.8 144.212 177.949 143.976 178.047C144.261 178.126 144.489 178.278 144.661 178.504C144.837 178.724 144.925 178.999 144.925 179.328C144.925 179.814 144.756 180.189 144.418 180.454C144.079 180.714 143.62 180.844 143.042 180.844ZM143.042 177.819C143.331 177.819 143.566 177.741 143.748 177.584C143.93 177.422 144.02 177.211 144.02 176.951C144.02 176.686 143.93 176.47 143.748 176.303C143.571 176.136 143.336 176.053 143.042 176.053C142.747 176.053 142.509 176.136 142.328 176.303C142.151 176.47 142.063 176.686 142.063 176.951C142.063 177.211 142.153 177.422 142.335 177.584C142.517 177.741 142.752 177.819 143.042 177.819ZM143.042 180.299C143.395 180.299 143.672 180.208 143.873 180.027C144.074 179.845 144.175 179.595 144.175 179.276C144.175 178.972 144.069 178.732 143.858 178.555C143.652 178.378 143.38 178.29 143.042 178.29C142.703 178.29 142.428 178.378 142.217 178.555C142.006 178.732 141.901 178.972 141.901 179.276C141.901 179.595 142.001 179.845 142.203 180.027C142.409 180.208 142.688 180.299 143.042 180.299ZM148.455 177.201H149.162V177.709C149.329 177.503 149.518 177.348 149.729 177.245C149.94 177.142 150.158 177.091 150.384 177.091C150.668 177.091 150.894 177.14 151.061 177.238C151.227 177.331 151.35 177.476 151.429 177.672C151.586 177.481 151.777 177.336 152.003 177.238C152.233 177.14 152.464 177.091 152.694 177.091C153.126 177.091 153.438 177.201 153.629 177.422C153.82 177.638 153.916 177.959 153.916 178.386V180.733H153.195V178.482C153.195 178.192 153.141 177.988 153.033 177.871C152.925 177.748 152.741 177.687 152.481 177.687C152.108 177.687 151.804 177.849 151.568 178.172C151.578 178.246 151.583 178.366 151.583 178.533V180.733H150.862V178.482C150.862 178.192 150.813 177.988 150.715 177.871C150.617 177.748 150.44 177.687 150.185 177.687C149.812 177.687 149.478 177.898 149.184 178.32V180.733H148.455V177.201ZM155.995 180.844C155.568 180.844 155.225 180.736 154.965 180.52C154.71 180.299 154.582 180.002 154.582 179.63C154.582 179.237 154.705 178.935 154.95 178.724C155.2 178.508 155.554 178.401 156.01 178.401C156.496 178.401 156.908 178.499 157.246 178.695V178.511C157.246 178.231 157.16 178.025 156.989 177.893C156.822 177.755 156.557 177.687 156.194 177.687C155.978 177.687 155.767 177.709 155.561 177.753C155.36 177.792 155.178 177.849 155.016 177.922V177.319C155.164 177.25 155.355 177.196 155.59 177.157C155.826 177.113 156.054 177.091 156.275 177.091C156.859 177.091 157.29 177.221 157.57 177.481C157.855 177.736 157.997 178.091 157.997 178.548V180.733H157.298V180.336C157.146 180.503 156.964 180.63 156.753 180.719C156.547 180.802 156.294 180.844 155.995 180.844ZM156.179 180.277C156.415 180.277 156.628 180.231 156.819 180.137C157.011 180.044 157.153 179.914 157.246 179.747V179.269C156.927 179.063 156.572 178.96 156.179 178.96C155.895 178.96 155.681 179.016 155.539 179.129C155.402 179.237 155.333 179.404 155.333 179.63C155.333 180.061 155.615 180.277 156.179 180.277ZM158.919 177.201H159.64V177.834C159.788 177.618 159.994 177.459 160.259 177.356C160.528 177.253 160.84 177.201 161.193 177.201V177.782C160.815 177.782 160.492 177.844 160.222 177.966C159.952 178.089 159.766 178.283 159.663 178.548V180.733H158.919V177.201Z" fill="#6F7070"/>
<defs>
<filter id="filter0_d" x="48.9116" y="148.553" width="145.606" height="74.117" filterUnits="userSpaceOnUse" color-interpolation-filters="sRGB">
<feFlood flood-opacity="0" result="BackgroundImageFix"/>
<feColorMatrix in="SourceAlpha" type="matrix" values="0 0 0 0 0 0 0 0 0 0 0 0 0 0 0 0 0 0 127 0"/>
<feOffset dy="7.35914"/>
<feGaussianBlur stdDeviation="14.1926"/>
<feColorMatrix type="matrix" values="0 0 0 0 0.8 0 0 0 0 0.8 0 0 0 0 0.8 0 0 0 0.25 0"/>
<feBlend mode="normal" in2="BackgroundImageFix" result="effect1_dropShadow"/>
<feBlend mode="normal" in="SourceGraphic" in2="effect1_dropShadow" result="shape"/>
</filter>
<linearGradient id="paint0_linear" x1="181.769" y1="157.491" x2="181.769" y2="245.013" gradientUnits="userSpaceOnUse">
<stop stop-color="#0F21DC"/>
<stop offset="1" stop-color="#0F21DC" stop-opacity="0"/>
</linearGradient>
</defs>
</svg>
