<svg width="17" height="17" viewBox="0 0 17 17" fill="none" xmlns="http://www.w3.org/2000/svg">
<path d="M11.4263 1.06208L11.4267 1.0617C12.3421 0.147937 13.8244 0.147923 14.7398 1.06166C14.7398 1.06167 14.7398 1.06169 14.7398 1.0617L15.9283 2.2458L15.9286 2.24608C16.8424 3.16134 16.8424 4.64371 15.9286 5.55909L15.9285 5.55919L6.89821 14.5895C6.88965 14.6005 6.88115 14.6088 6.87458 14.6146C6.86765 14.6222 6.86098 14.628 6.85579 14.6321L6.85275 14.6353L6.83988 14.6439C6.83988 14.6439 6.8396 14.6441 6.83887 14.6447C6.8378 14.6455 6.83573 14.6472 6.83211 14.6502L6.83164 14.6506C6.82859 14.6531 6.82407 14.6569 6.81931 14.6606C6.81429 14.6646 6.80764 14.6696 6.79991 14.6748C6.7998 14.6748 6.7997 14.6749 6.7996 14.675L6.7167 14.55C6.71022 14.5543 6.70268 14.5586 6.69514 14.563C6.68735 14.5675 6.67956 14.572 6.67293 14.5764L11.4263 1.06208ZM11.4263 1.06208L10.6503 1.84231L10.65 1.84263L2.40416 10.0841H2.38615L2.34219 10.15C2.34207 10.1502 2.34191 10.1504 2.34169 10.1507L2.33594 10.1576L2.33505 10.1587C2.33018 10.1645 2.31971 10.177 2.31042 10.1912L2.28583 10.2286V10.2319C2.28444 10.2338 2.28313 10.2357 2.2819 10.2376L2.26922 10.2507L2.2584 10.2831L2.25498 10.292C2.25399 10.2945 2.2526 10.2979 2.25099 10.3021C2.24589 10.3117 2.24146 10.3227 2.23828 10.3347C2.23828 10.3347 2.23827 10.3347 2.23827 10.3348L0.407799 15.8392C0.407721 15.8394 0.407644 15.8397 0.407567 15.8399C0.335454 16.0512 0.39059 16.2851 0.549615 16.4419C0.66073 16.5515 0.810701 16.613 0.966916 16.6124L0.966916 16.6124L0.968978 16.6124C1.03044 16.6113 1.09132 16.6018 1.15001 16.5841L1.15002 16.5842L1.15421 16.5828L6.65108 14.749C6.66152 14.7467 6.67325 14.7431 6.68553 14.7371C6.68789 14.736 6.69015 14.7348 6.69229 14.7336C6.70391 14.7291 6.7154 14.7238 6.72664 14.7177C6.73856 14.7127 6.74959 14.7063 6.75961 14.699L11.4263 1.06208ZM2.2707 10.2573C2.27036 10.2579 2.27057 10.2575 2.27119 10.2563L2.2707 10.2573ZM6.85979 14.6266C6.85898 14.6272 6.85876 14.6274 6.85937 14.6269L6.85979 14.6266ZM15.0979 4.73308L15.0975 4.73343L14.7386 5.09574L11.8984 2.2555L12.2617 1.89234C12.2617 1.89234 12.2617 1.89233 12.2617 1.89233C12.7167 1.43773 13.4542 1.43772 13.9093 1.89236L15.1016 3.08464C15.1017 3.08473 15.1018 3.08482 15.1019 3.08491C15.5534 3.5422 15.5516 4.27811 15.0979 4.73308ZM6.47549 13.3597L3.63486 10.5192L11.0634 3.09064L13.9041 5.93114L6.47549 13.3597ZM1.89248 15.0936L3.0581 11.6081L5.38193 13.9318L1.89248 15.0936Z" fill="#443F3F" stroke="#443F3F" stroke-width="0.3"/>
</svg>
