<svg width="21" height="19" viewBox="0 0 21 19" fill="none" xmlns="http://www.w3.org/2000/svg">
<path fill-rule="evenodd" clip-rule="evenodd" d="M11.7873 3.07588L19.0553 15.2304C19.6532 16.2302 18.9329 17.5002 17.768 17.5002H3.23191C2.06697 17.5002 1.34666 16.2302 1.94452 15.2304L9.21254 3.07588C9.79471 2.10231 11.2052 2.10231 11.7873 3.07588ZM7.92515 2.30606C9.08948 0.358918 11.9104 0.358916 13.0747 2.30606L20.3427 14.4605C21.5385 16.4602 20.0978 19.0002 17.768 19.0002H3.23191C0.902032 19.0002 -0.538596 16.4602 0.657133 14.4605L7.92515 2.30606ZM11.236 5.913H9.663V12.283H11.236V5.913ZM9.78 14.935C9.962 15.1083 10.183 15.195 10.443 15.195C10.6943 15.195 10.911 15.1083 11.093 14.935C11.275 14.753 11.366 14.5363 11.366 14.285C11.366 14.025 11.275 13.8083 11.093 13.635C10.9197 13.4617 10.703 13.375 10.443 13.375C10.183 13.375 9.962 13.4617 9.78 13.635C9.60667 13.8083 9.52 14.025 9.52 14.285C9.52 14.5363 9.60667 14.753 9.78 14.935Z" fill="black"/>
</svg>
